<svg xmlns="http://www.w3.org/2000/svg" width="20" height="18" fill="none" viewBox="0 0 20 18"><path fill="currentColor" d="M12.403 0a8 8 0 1 0 0 16 8 8 0 0 0 0-16Zm-9.07 3.82A8.01 8.01 0 0 0 .403 10a8 8 0 0 0 8 8c.64 0 1.27-.08 1.88-.23-1.76-.39-3.38-1.27-4.71-2.48A6.001 6.001 0 0 1 2.403 10c0-.3.03-.59.07-.89-.04-.37-.07-.74-.07-1.11 0-1.44.32-2.87.93-4.18Z"/><path fill="#5B8B53" d="M9.328 10 7.88 8.5 7.399 8l.964-.5.483-1 .482.577.965 1 .482.5.482.5.965-1 1.93-2L15.115 5l.964-1.5.965 1.5.965.5-4.824 4.5-1.929 2-1.93-2Z"/></svg>
