<svg xmlns="http://www.w3.org/2000/svg" width="24" height="24" fill="none" viewBox="0 0 24 24"><path fill="currentColor" d="M12 4.583a2.917 2.917 0 1 1 0 5.834 2.917 2.917 0 0 1 0-5.833ZM6.167 6.668c.466 0 .9.125 1.275.35a4.613 4.613 0 0 0 .941 3.3 2.498 2.498 0 0 1-4.716-1.15 2.5 2.5 0 0 1 2.5-2.5Zm11.666 0a2.5 2.5 0 1 1 0 5c-.966 0-1.8-.55-2.216-1.35a4.613 4.613 0 0 0 .941-3.3 2.46 2.46 0 0 1 1.275-.35Zm-11.25 8.541c0-1.725 2.425-3.124 5.417-3.124s5.417 1.4 5.417 3.125v1.458H6.583v-1.459ZM2 16.668v-1.25C2 14.258 3.575 13.284 5.708 13c-.491.567-.791 1.35-.791 2.209v1.458H2Zm20 0h-2.917v-1.459c0-.858-.3-1.641-.791-2.208 2.133.284 3.708 1.258 3.708 2.417v1.25Z"/></svg>