<svg
	width="24"
	height="24"
	viewBox="0 0 24 24"
	fill="none"
	xmlns="http://www.w3.org/2000/svg"
>
	<path
		d="M4.4399 8.93999C4.72115 8.65909 5.1024 8.50131 5.4999 8.50131C5.8974 8.50131 6.27865 8.65909 6.5599 8.93999L11.9999 14.38L17.4399 8.93999C17.7243 8.67503 18.1003 8.53079 18.4889 8.53764C18.8775 8.5445 19.2483 8.70192 19.5231 8.97675C19.798 9.25157 19.9554 9.62235 19.9623 10.0109C19.9691 10.3995 19.8249 10.7756 19.5599 11.06L13.0599 17.56C12.7787 17.8409 12.3974 17.9987 11.9999 17.9987C11.6024 17.9987 11.2212 17.8409 10.9399 17.56L4.4399 11.06C4.159 10.7787 4.00122 10.3975 4.00122 9.99999C4.00122 9.60249 4.159 9.22124 4.4399 8.93999V8.93999Z"
		fill="currentColor"
	/>
</svg>
