<svg
	width="24"
	height="24"
	viewBox="0 0 24 24"
	fill="none"
	xmlns="http://www.w3.org/2000/svg"
>
	<path
		d="M4.4399 15.06C4.72115 15.3409 5.1024 15.4987 5.4999 15.4987C5.8974 15.4987 6.27865 15.3409 6.5599 15.06L11.9999 9.61999L17.4399 15.06C17.7243 15.325 18.1003 15.4692 18.4889 15.4623C18.8775 15.4555 19.2483 15.2981 19.5231 15.0232C19.798 14.7484 19.9554 14.3776 19.9623 13.989C19.9691 13.6004 19.8249 13.2243 19.5599 12.94L13.0599 6.43999C12.7787 6.15909 12.3974 6.00131 11.9999 6.00131C11.6024 6.00131 11.2212 6.15909 10.9399 6.43999L4.4399 12.94C4.159 13.2212 4.00122 13.6025 4.00122 14C4.00122 14.3975 4.159 14.7787 4.4399 15.06V15.06Z"
		fill="currentColor"
	/>
</svg>
