<svg
	width="24"
	height="24"
	viewBox="0 0 24 24"
	fill="none"
	xmlns="http://www.w3.org/2000/svg"
>
	<path
		d="M15.0599 4.43999C15.3408 4.72124 15.4986 5.10249 15.4986 5.49999C15.4986 5.89749 15.3408 6.27874 15.0599 6.55999L9.6199 12L15.0599 17.44C15.3249 17.7243 15.4691 18.1004 15.4623 18.489C15.4554 18.8776 15.298 19.2484 15.0231 19.5232C14.7483 19.7981 14.3775 19.9555 13.9889 19.9623C13.6003 19.9692 13.2243 19.825 12.9399 19.56L6.4399 13.06C6.159 12.7787 6.00122 12.3975 6.00122 12C6.00122 11.6025 6.159 11.2212 6.4399 10.94L12.9399 4.43999C13.2212 4.15909 13.6024 4.00131 13.9999 4.00131C14.3974 4.00131 14.7787 4.15909 15.0599 4.43999V4.43999Z"
		fill="currentColor"
	/>
</svg>
