<svg xmlns="http://www.w3.org/2000/svg" width="24" height="24" fill="none" viewBox="0 0 24 24"><path fill="currentColor" d="M21.938 10.008a10.92 10.92 0 0 0-.657-.54 33.94 33.94 0 0 0-.68-.503l-9.011 9.012c.07 0 .137.003.2.011.062.008.132.012.21.012.36 0 .715-.016 1.066-.047.352-.031.707-.082 1.067-.152l7.805-7.793ZM0 12c1 1.125 2.113 2.129 3.34 3.012a16.564 16.564 0 0 0 3.973 2.11l-4.09 4.1 1.054 1.055 4.664-4.664.739.153 9.633-9.633-.563-.328 5.027-5.028-1.054-1.054-5.403 5.402c-.843-.36-1.71-.637-2.601-.832A12.656 12.656 0 0 0 12 6c-1.172 0-2.313.152-3.422.457-1.11.305-2.172.723-3.187 1.254a16.918 16.918 0 0 0-2.883 1.91A23.392 23.392 0 0 0 0 12Zm12-4.5a4.45 4.45 0 0 1 1.723.34c.546.226 1.035.55 1.464.973l-2.12 2.12a1.39 1.39 0 0 0-.481-.316c-.18-.07-.375-.11-.586-.117-.21 0-.406.04-.586.117-.18.078-.34.184-.48.317a1.279 1.279 0 0 0-.317.468c-.07.18-.11.38-.117.598 0 .203.035.395.105.574.07.18.18.344.329.492l-2.121 2.121a4.44 4.44 0 0 1-.973-1.453A4.487 4.487 0 0 1 7.5 12c0-.625.117-1.21.352-1.758a4.515 4.515 0 0 1 .96-1.43 4.515 4.515 0 0 1 1.43-.96A4.415 4.415 0 0 1 12 7.5Zm-4.91 7.922a16.108 16.108 0 0 1-2.66-1.488A18.558 18.558 0 0 1 2.074 12c.735-.71 1.52-1.355 2.356-1.934a16.104 16.104 0 0 1 2.66-1.488 5.74 5.74 0 0 0-.797 1.629 6.083 6.083 0 0 0 0 3.586 5.74 5.74 0 0 0 .797 1.629ZM24 12a22.53 22.53 0 0 0-.95-.984l-5.988 5.988a16.655 16.655 0 0 0 3.75-2.098A21.588 21.588 0 0 0 24 12Z"/></svg>